/* XPM */
static char * bottom_right_active_xpm[] = {
"20 20 3 1",
" 	c None",
".	c #24273A",
"+	c #363A4F",
"               ....+",
"               ....+",
"               ....+",
"               ....+",
"               ....+",
"               ....+",
"               ....+",
"               ....+",
"               ....+",
"               ....+",
"               ....+",
"               ....+",
"               ....+",
"               ....+",
"               ....+",
"...................+",
"..................++",
".................++ ",
"................++  ",
"+++++++++++++++++   "};
