/* XPM */
static char * bottom_left_active_xpm[] = {
"20 20 3 1",
" 	c None",
".	c #363A4F",
"+	c #24273A",
".++++               ",
".++++               ",
".++++               ",
".++++               ",
".++++               ",
".++++               ",
".++++               ",
".++++               ",
".++++               ",
".++++               ",
".++++               ",
".++++               ",
".++++               ",
".++++               ",
".++++               ",
".+++++++++++++++++++",
"..++++++++++++++++++",
" ..+++++++++++++++++",
"  ..++++++++++++++++",
"   ................."};
