/* XPM */
static char * close_inactive_xpm[] = {
"20 25 5 1",
" 	c None",
".	c #363A4F",
"+	c #181926",
"@	c #24273A",
"#	c #494D64",
"                    ",
"                    ",
"                    ",
"                    ",
"                    ",
"   ................+",
"  ..@@@@@@@@@@@@@@@+",
" ..@@@@@@@@@@@@@@@@+",
"..@@@@@@@@@@@@@@@@@+",
".@@@@@@@@@@@@@@@@@@+",
".@@@@@#@@@@@@#@@@@@+",
".@@@@###@@@@###@@@@+",
".@@@@@###@@###@@@@@+",
".@@@@@@######@@@@@@+",
".@@@@@@@####@@@@@@@+",
".@@@@@@@####@@@@@@@+",
".@@@@@@######@@@@@@+",
".@@@@@###@@###@@@@@+",
".@@@@###@@@@###@@@@+",
".@@@@@#@@@@@@#@@@@@+",
".@@@@@@@@@@@@@@@@@@+",
"..@@@@@@@@@@@@@@@@@+",
" .+@@@@@@@@@@@@@@@@+",
"  ++@@@@@@@@@@@@@@@+",
"   +++++++++++++++++"};
