/* XPM */
static char * close_pressed_xpm[] = {
"20 25 5 1",
" 	c None",
".	c #181926",
"+	c #24273A",
"@	c #363A4F",
"#	c #ED8796",
"                    ",
"                    ",
"                    ",
"                    ",
"                    ",
"    ................",
"   ..++++++++++++++@",
"  ..+++++++++++++++@",
" ..++++++++++++++++@",
"..+++++++++++++++++@",
".+++++#++++++#+++++@",
".++++###++++###++++@",
".+++++###++###+++++@",
".++++++######++++++@",
".+++++++####+++++++@",
".+++++++####+++++++@",
".++++++######++++++@",
".+++++###++###+++++@",
".++++###++++###++++@",
".+++++#++++++#+++++@",
"..+++++++++++++++++@",
" ..++++++++++++++++@",
"  ..+++++++++++++++@",
"   .@++++++++++++++@",
"    @@@@@@@@@@@@@@@@"};
