/* XPM */
static char * hide_pressed_xpm[] = {
"20 25 5 1",
" 	c None",
".	c #181926",
"+	c #24273A",
"@	c #363A4F",
"#	c #8AADF4",
"                    ",
"                    ",
"                    ",
"                    ",
"                    ",
"....................",
".++++++++++++++++++@",
".++++++++++++++++++@",
".++++++++++++++++++@",
".++++++++++++++++++@",
".++++++++++++++++++@",
".++++++++++++++++++@",
".++++++++++++++++++@",
".+++++++####+++++++@",
".+++++++#++#+++++++@",
".+++++++#++#+++++++@",
".+++++++####+++++++@",
".++++++++++++++++++@",
".++++++++++++++++++@",
".++++++++++++++++++@",
".++++++++++++++++++@",
".++++++++++++++++++@",
".++++++++++++++++++@",
".++++++++++++++++++@",
".@@@@@@@@@@@@@@@@@@@"};
