/* XPM */
static char * left_inactive_xpm[] = {
"5 5 2 1",
" 	c #363A4F",
".	c #24273A",
" ....",
" ....",
" ....",
" ....",
" ...."};
