/* XPM */
static char * maximize_toggled_pressed_xpm[] = {
"20 25 6 1",
" 	c None",
".	c #181926",
"+	c #222537",
"@	c #363A4F",
"#	c #A6DA95",
"$	c #24273A",
"                    ",
"                    ",
"                    ",
"                    ",
"                    ",
"....................",
".++++++++++++++++++@",
".++++++++++++++++++@",
".++++++++++++++++++@",
".++++++++++++++++++@",
".++++++#######+++++@",
".++++++#######+++++@",
".++++++#$$$$$#+++++@",
".++++#######$#+++++@",
".++++#######$#+++++@",
".++++#$$$$$###+++++@",
".++++#$$$$$#+++++++@",
".++++#$$$$$#+++++++@",
".++++#######+++++++@",
".++++++++++++++++++@",
".++++++++++++++++++@",
".++++++++++++++++++@",
".++++++++++++++++++@",
".++++++++++++++++++@",
".@@@@@@@@@@@@@@@@@@@"};
