/* XPM */
static char * menu_pressed_xpm[] = {
"20 25 5 1",
" 	c None",
".	c #181926",
"+	c #2B2E42",
"@	c #363A4F",
"#	c #8DB5CA",
"                    ",
"                    ",
"                    ",
"                    ",
"                    ",
"................    ",
".++++++++++++++.@   ",
".+++++++++++++++@@  ",
".++++++++++++++++@@ ",
".+++++++++++++++++@@",
".++++++++++++++++++@",
".++++++++++++++++++@",
".++++++++++++++++++@",
".++++++++++++++++++@",
".+++++########+++++@",
".+++++########+++++@",
".++++++++++++++++++@",
".++++++++++++++++++@",
".++++++++++++++++++@",
".++++++++++++++++++@",
".+++++++++++++++++@@",
".++++++++++++++++@@ ",
".+++++++++++++++@@  ",
".++++++++++++++@@   ",
".@@@@@@@@@@@@@@@    "};
