/* XPM */
static char * shade_toggled_pressed_xpm[] = {
"20 25 5 1",
" 	c None",
".	c #181926",
"+	c #222537",
"@	c #363A4F",
"#	c #EED49F",
"                    ",
"                    ",
"                    ",
"                    ",
"                    ",
"....................",
".++++++++++++++++++@",
".++++++++++++++++++@",
".++++++++++++++++++@",
".++++++++++++++++++@",
".++++++++++++++++++@",
".++++++++++++++++++@",
".+++++########+++++@",
".+++++########+++++@",
".++++++++++++++++++@",
".+++++########+++++@",
".++++++######++++++@",
".+++++++####+++++++@",
".++++++++##++++++++@",
".++++++++++++++++++@",
".++++++++++++++++++@",
".++++++++++++++++++@",
".++++++++++++++++++@",
".++++++++++++++++++@",
".@@@@@@@@@@@@@@@@@@@"};
