/* XPM */
static char * stick_active_xpm[] = {
"20 25 5 1",
" 	c None",
".	c #363A4F",
"+	c #181926",
"@	c #24273A",
"#	c #F5BDE6",
"                    ",
"                    ",
"                    ",
"                    ",
"                    ",
"...................+",
".@@@@@@@@@@@@@@@@@@+",
".@@@@@@@@@@@@@@@@@@+",
".@@@@@@@@@@@@@@@@@@+",
".@@@@@@@@@@@@@@@@@@+",
".@@@@@@@@@@@@@@@@@@+",
".@@@@@@@####@@@@@@@+",
".@@@@@@#@@@@#@@@@@@+",
".@@@@@#@@@@@@#@@@@@+",
".@@@@@#@@@@@@#@@@@@+",
".@@@@@#@@@@@@#@@@@@+",
".@@@@@#@@@@@@#@@@@@+",
".@@@@@@#@@@@#@@@@@@+",
".@@@@@@@####@@@@@@@+",
".@@@@@@@@@@@@@@@@@@+",
".@@@@@@@@@@@@@@@@@@+",
".@@@@@@@@@@@@@@@@@@+",
".@@@@@@@@@@@@@@@@@@+",
".@@@@@@@@@@@@@@@@@@+",
"++++++++++++++++++++"};
