/* XPM */
static char * title_5_active_xpm[] = {
"5 25 2 1",
" 	c #363A4F",
".	c #24273A",
"     ",
".....",
".....",
".....",
".....",
".....",
".....",
".....",
".....",
".....",
".....",
".....",
".....",
".....",
".....",
".....",
".....",
".....",
".....",
".....",
".....",
".....",
".....",
".....",
"....."};
