/* XPM */
static char * title_4_active_xpm[] = {
"5 25 3 1",
" 	c #363A4F",
".	c #24273A",
"+	c #181926",
"     ",
".....",
".....",
".....",
".....",
"+++++",
"+++++",
"+++++",
"+++++",
"+++++",
"+++++",
"+++++",
"+++++",
"+++++",
"+++++",
"+++++",
"+++++",
"+++++",
"+++++",
"+++++",
"+++++",
"+++++",
"+++++",
"+++++",
"+++++"};
