/* XPM */
static char * top_right_inactive_xpm[] = {
"5 25 3 1",
" 	c None",
".	c #363A4F",
"+	c #24273A",
"..   ",
"+..  ",
"++.. ",
"+++..",
"++++.",
"++++.",
"++++.",
"++++.",
"++++.",
"++++.",
"++++.",
"++++.",
"++++.",
"++++.",
"++++.",
"++++.",
"++++.",
"++++.",
"++++.",
"++++.",
"++++.",
"++++.",
"++++.",
"++++.",
"++++."};
