/* XPM */
static char * close_active_xpm[] = {
"16 16 2 1",
".	c #C0C0C0 s active_color_2",
"+	c #FFFFFF s active_color_1",
"++++++++++++++++",
"................",
"................",
"................",
"................",
"................",
"......++++......",
".....++++++.....",
".....++++++.....",
".....++++++.....",
".....++++++.....",
"......++++......",
"................",
"................",
"................",
"................"}
