/* XPM */
static char * title_1_inactive_xpm[] = {
"1 16 2 1",
".	c #C0C0C0 s inactive_color_2",
"+	c #FFFFFF s inactive_color_1",
"+",
".",
".",
".",
".",
".",
".",
".",
".",
".",
".",
".",
".",
".",
".",
"."}
