/* XPM */
static char * bottom_active_xpm[] = {
"19 3 2 1",
" 	c #24273A",
".	c #181926",
"                   ",
"                   ",
"..................."};
