/* XPM */
static char * hide_pressed_xpm[] = {
"21 21 4 1",
" 	c #363A4F",
".	c #8AADF4",
"+	c #181926",
"@	c #24273A",
"                     ",
" ...................+",
" ...................+",
" ...................+",
" ...................+",
" ...................+",
" ...................+",
" ...................+",
" .......@@@@@.......+",
" .......@...@.......+",
" .......@...@.......+",
" .......@@@@@.......+",
" ...................+",
" ...................+",
" ...................+",
" ...................+",
" ...................+",
" ...................+",
" ...................+",
" ...................+",
"+++++++++++++++++++++"};
