/* XPM */
static char * maximize_pressed_xpm[] = {
"21 21 4 1",
" 	c #181926",
".	c #A6DA95",
"+	c #363A4F",
"@	c #24273A",
"                     ",
" ...................+",
" ...................+",
" ...................+",
" ...................+",
" ...................+",
" .....@@@@@@@@@.....+",
" .....@@@@@@@@@.....+",
" .....@@@@@@@@@.....+",
" .....@.......@.....+",
" .....@.......@.....+",
" .....@.......@.....+",
" .....@.......@.....+",
" .....@.......@.....+",
" .....@@@@@@@@@.....+",
" ...................+",
" ...................+",
" ...................+",
" ...................+",
" ...................+",
" ++++++++++++++++++++"};
