/* XPM */
static char * menu_pressed_xpm[] = {
"21 21 4 1",
" 	c #363A4F",
".	c #8DB5CA",
"+	c #181926",
"@	c #24273A",
"                     ",
" ...................+",
" ...................+",
" ...................+",
" ...................+",
" ...................+",
" ...................+",
" ...................+",
" ...................+",
" .....@@@@@@@@@.....+",
" .....@.......@.....+",
" .....@@@@@@@@@.....+",
" ...................+",
" ...................+",
" ...................+",
" ...................+",
" ...................+",
" ...................+",
" ...................+",
" ...................+",
"+++++++++++++++++++++"};
