/* XPM */
static char * right_inactive_xpm[] = {
"3 19 2 1",
" 	c #24273A",
".	c #181926",
"  .",
"  .",
"  .",
"  .",
"  .",
"  .",
"  .",
"  .",
"  .",
"  .",
"  .",
"  .",
"  .",
"  .",
"  .",
"  .",
"  .",
"  .",
"  ."};
