/* XPM */
static char * shade_pressed_xpm[] = {
"21 21 4 1",
" 	c #363A4F",
".	c #EED49F",
"+	c #181926",
"@	c #24273A",
"                     ",
" ...................+",
" ...................+",
" ...................+",
" ...................+",
" ...................+",
" .....@@@@@@@@@.....+",
" .....@@@@@@@@@.....+",
" ...................+",
" ...................+",
" .........@.........+",
" ........@@@........+",
" .......@@@@@.......+",
" ......@@@@@@@......+",
" .....@@@@@@@@@.....+",
" ...................+",
" ...................+",
" ...................+",
" ...................+",
" ...................+",
"+++++++++++++++++++++"};
