/* XPM */
static char * stick_toggled_pressed_xpm[] = {
"21 21 4 1",
" 	c #363A4F",
".	c #F5BDE6",
"+	c #181926",
"@	c #24273A",
"                     ",
" ...................+",
" ...................+",
" ...................+",
" ...................+",
" ...................+",
" .......@@@@@.......+",
" ......@@...@@......+",
" .....@@..@..@@.....+",
" .....@..@@@..@.....+",
" .....@.@@@@@.@.....+",
" .....@..@@@..@.....+",
" .....@@..@..@@.....+",
" ......@@...@@......+",
" .......@@@@@.......+",
" ...................+",
" ...................+",
" ...................+",
" ...................+",
" ...................+",
"+++++++++++++++++++++"};
