/* XPM */
static char * title_2_inactive_xpm[] = {
"4 21 3 1",
" 	c #363A4F",
".	c #24273A",
"+	c #181926",
"    ",
"....",
"....",
"....",
"....",
"....",
"....",
"....",
"....",
"....",
"....",
"....",
"....",
"....",
"....",
"....",
"....",
"....",
"....",
"....",
"++++"};
