/* XPM */
static char * bottom_left_active_xpm[] = {
"23 3 3 1",
" 	c #363A4F",
".	c #24273A",
"+	c #181926",
" ......................",
" ......................",
"+++++++++++++++++++++++"};
