/* XPM */
static char * bottom_right_inactive_xpm[] = {
"23 3 2 1",
" 	c #24273A",
".	c #181926",
"                      .",
"                      .",
"......................."};
