/* XPM */
static char * close_active_xpm[] = {
"26 21 4 1",
" 	c #363A4F",
".	c #24273A",
"+	c #181926",
"@	c #ED8796",
"                          ",
" ........................+",
" ........................+",
" ........................+",
" ........................+",
" ........................+",
" .......@@......@@.......+",
" .......@@@....@@@.......+",
" ........@@@..@@@........+",
" .........@@@@@@.........+",
" ..........@@@@..........+",
" .........@@@@@@.........+",
" ........@@@..@@@........+",
" .......@@@....@@@.......+",
" .......@@......@@.......+",
" ........................+",
" ........................+",
" ........................+",
" ........................+",
" ........................+",
" +++++++++++++++++++++++++"};
