/* XPM */
static char * left_inactive_xpm[] = {
"3 19 2 1",
" 	c #363A4F",
".	c #24273A",
" ..",
" ..",
" ..",
" ..",
" ..",
" ..",
" ..",
" ..",
" ..",
" ..",
" ..",
" ..",
" ..",
" ..",
" ..",
" ..",
" ..",
" ..",
" .."};
