/* XPM */
static char * title_3_active_xpm[] = {
"21 21 3 1",
" 	c #363A4F",
".	c #24273A",
"+	c #181926",
"                     ",
".....................",
".....................",
".....................",
".....................",
".....................",
".....................",
".....................",
".....................",
".....................",
".....................",
".....................",
".....................",
".....................",
".....................",
".....................",
".....................",
".....................",
".....................",
".....................",
"+++++++++++++++++++++"};
