/* XPM */
static char * top_left_inactive_xpm[] = {
"3 21 2 1",
" 	c #363A4F",
".	c #24273A",
"   ",
" ..",
" ..",
" ..",
" ..",
" ..",
" ..",
" ..",
" ..",
" ..",
" ..",
" ..",
" ..",
" ..",
" ..",
" ..",
" ..",
" ..",
" ..",
" ..",
" .."};
