/* XPM */
static char * top_right_active_xpm[] = {
"3 21 2 1",
" 	c #181926",
".	c #24273A",
"   ",
".. ",
".. ",
".. ",
".. ",
".. ",
".. ",
".. ",
".. ",
".. ",
".. ",
".. ",
".. ",
".. ",
".. ",
".. ",
".. ",
".. ",
".. ",
".. ",
".. "};
